<!-- Generated by IcoMoon.io -->
<svg version="1.1" xmlns="http://www.w3.org/2000/svg" width="24" height="24" viewBox="0 0 24 24">
<title>aircraft-take-off</title>
<path d="M23.844 7.744c0.143 0.308 0.152 1.548-5.861 4.37l-5.896 2.767c-2.052 0.964-5.029 2.231-6.342 2.581-0.919 0.245-1.796-0.379-1.796-0.379s-2.647-2.37-3.35-2.903c-0.702-0.533-0.642-0.804 0.258-1.092 0.56-0.179 3.756 0.592 5.118 0.936 1.607-0.96 3.074-1.783 3.769-2.158-1.675-1.24-4.81-3.554-5.809-4.26-0.959-0.678 0.012-0.922 0.012-0.922 0.442-0.119 1.394-0.274 1.874-0.173 3.265 0.683 8.716 2.485 9.133 2.623 0.998-0.523 2.554-1.31 3.506-1.758 2.49-1.169 5.192-0.044 5.383 0.366z"></path>
</svg>
