<!-- Generated by IcoMoon.io -->
<svg version="1.1" xmlns="http://www.w3.org/2000/svg" width="24" height="24" viewBox="0 0 24 24">
<title>key</title>
<path d="M21.229 5.67c-0.604-3.572-3.864-5.96-7.283-5.329-3.42 0.63-6.307 3.379-5.704 6.954 0.128 0.769 0.49 1.973 0.916 2.838l-6.21 9.268c-0.229 0.342-0.359 0.959-0.29 1.369l0.4 2.365c0.070 0.41 0.446 0.686 0.84 0.617l1.819-0.337c0.394-0.071 0.893-0.418 1.109-0.767l2.456-3.973 0.022-0.026 1.663-0.307 2.868-4.655c0.942 0.167 2.294 0.11 3.094-0.037 3.418-0.631 4.904-4.404 4.301-7.979zM18.199 7.502c-0.941 1.404-1.901 0.415-3.244-0.57-1.343-0.982-2.562-1.586-1.622-2.99 0.941-1.404 2.791-1.746 4.136-0.762 1.344 0.983 1.669 2.918 0.73 4.322z"></path>
</svg>
