<!-- Generated by IcoMoon.io -->
<svg version="1.1" xmlns="http://www.w3.org/2000/svg" width="24" height="24" viewBox="0 0 24 24">
<title>magnifying-glass</title>
<path d="M21.054 18.56l-4.535-4.535c0.684-1.122 1.078-2.442 1.078-3.852 0-4.1-3.553-7.652-7.654-7.652-4.1-0.001-7.423 3.323-7.423 7.423 0 4.099 3.553 7.652 7.652 7.652 1.364 0 2.64-0.371 3.738-1.013l4.559 4.561c0.446 0.445 1.17 0.445 1.615 0l1.132-1.132c0.445-0.445 0.283-1.008-0.162-1.453zM4.805 9.944c0-2.839 2.3-5.14 5.138-5.14 2.839 0 5.369 2.528 5.369 5.369 0 2.838-2.302 5.14-5.14 5.14-2.839-0.001-5.368-2.531-5.368-5.369z"></path>
</svg>
