<svg aria-hidden="true" style="position: absolute; width: 0; height: 0; overflow: hidden;" version="1.1" xmlns="http://www.w3.org/2000/svg" xmlns:xlink="http://www.w3.org/1999/xlink">
<defs>
<symbol id="icon-time" viewBox="0 0 20 20">
<path d="M10 20c-5.523 0-10-4.477-10-10s4.477-10 10-10v0c5.523 0 10 4.477 10 10s-4.477 10-10 10v0zM10 18c4.418 0 8-3.582 8-8s-3.582-8-8-8v0c-4.418 0-8 3.582-8 8s3.582 8 8 8v0zM9 10.41v-6.41h2v5.59l3.95 3.95-1.41 1.41-4.54-4.54z"></path>
</symbol>
<symbol id="icon-bookmark" viewBox="0 0 20 20">
<path d="M14 2v17l-4-4-4 4v-17c0-0.553 0.585-1.020 1-1h6c0.689-0.020 1 0.447 1 1z"></path>
</symbol>
<symbol id="icon-chevron-right" viewBox="0 0 20 20">
<path d="M9.163 4.516c0.418 0.408 4.502 4.695 4.502 4.695 0.223 0.219 0.335 0.504 0.335 0.789s-0.112 0.57-0.335 0.787c0 0-4.084 4.289-4.502 4.695-0.418 0.408-1.17 0.436-1.615 0-0.446-0.434-0.481-1.041 0-1.574l3.747-3.908-3.747-3.908c-0.481-0.533-0.446-1.141 0-1.576s1.197-0.409 1.615 0z"></path>
</symbol>
<symbol id="icon-trash" viewBox="0 0 20 20">
<path d="M3.389 7.113l1.101 10.908c0.061 0.461 2.287 1.977 5.51 1.979 3.225-0.002 5.451-1.518 5.511-1.979l1.102-10.908c-1.684 0.942-4.201 1.387-6.613 1.387-2.41 0-4.928-0.445-6.611-1.387zM13.168 1.51l-0.859-0.951c-0.332-0.473-0.692-0.559-1.393-0.559h-1.831c-0.7 0-1.061 0.086-1.392 0.559l-0.859 0.951c-2.57 0.449-4.434 1.64-4.434 2.519v0.17c0 1.547 3.403 2.801 7.6 2.801 4.198 0 7.601-1.254 7.601-2.801v-0.17c0-0.879-1.863-2.070-4.433-2.519zM12.070 4.34l-1.070-1.34h-2l-1.068 1.34h-1.7c0 0 1.862-2.221 2.111-2.522 0.19-0.23 0.384-0.318 0.636-0.318h2.043c0.253 0 0.447 0.088 0.637 0.318 0.248 0.301 2.111 2.522 2.111 2.522h-1.7z"></path>
</symbol>
<symbol id="icon-triangle-down" viewBox="0 0 20 20">
<path d="M5 6h10l-5 9-5-9z"></path>
</symbol>
<symbol id="icon-triangle-up" viewBox="0 0 20 20">
<path d="M15 14h-10l5-9 5 9z"></path>
</symbol>
<symbol id="icon-aircraft-take-off" viewBox="0 0 20 20">
<path d="M19.87 6.453c0.119 0.257 0.127 1.29-4.884 3.642l-4.913 2.306c-1.71 0.803-4.191 1.859-5.285 2.151-0.766 0.204-1.497-0.316-1.497-0.316s-2.206-1.975-2.792-2.419c-0.585-0.444-0.535-0.67 0.215-0.91 0.467-0.149 3.13 0.493 4.265 0.78 1.339-0.8 2.562-1.486 3.141-1.798-1.396-1.033-4.008-2.962-4.841-3.55-0.799-0.565 0.010-0.768 0.010-0.768 0.368-0.099 1.162-0.228 1.562-0.144 2.721 0.569 7.263 2.071 7.611 2.186 0.832-0.436 2.128-1.092 2.922-1.465 2.075-0.974 4.327-0.037 4.486 0.305z"></path>
</symbol>
<symbol id="icon-chat" viewBox="0 0 20 20">
<path d="M5.8 12.2v-6.2h-3.8c-1.1 0-2 0.9-2 2v6c0 1.1 0.9 2 2 2h1v3l3-3h5c1.1 0 2-0.9 2-2v-1.82c-0.064 0.014-0.132 0.021-0.2 0.021l-7-0.001zM18 1h-9c-1.1 0-2 0.9-2 2v8h7l3 3v-3h1c1.1 0 2-0.899 2-2v-6c0-1.1-0.9-2-2-2z"></path>
</symbol>
<symbol id="icon-edit" viewBox="0 0 20 20">
<path d="M17.561 2.439c-1.442-1.443-2.525-1.227-2.525-1.227l-12.826 12.825-1.010 4.762 4.763-1.010 12.826-12.823c-0.001 0 0.216-1.083-1.228-2.527zM5.68 17.217l-1.624 0.35c-0.156-0.293-0.345-0.586-0.69-0.932s-0.639-0.533-0.932-0.691l0.35-1.623 0.47-0.469c0 0 0.883 0.018 1.881 1.016 0.997 0.996 1.016 1.881 1.016 1.881l-0.471 0.468z"></path>
</symbol>
<symbol id="icon-home" viewBox="0 0 20 20">
<path d="M18.672 11h-1.672v6c0 0.445-0.194 1-1 1h-4v-6h-4v6h-4c-0.806 0-1-0.555-1-1v-6h-1.672c-0.598 0-0.47-0.324-0.060-0.748l8.024-8.032c0.195-0.202 0.451-0.302 0.708-0.312 0.257 0.010 0.513 0.109 0.708 0.312l8.023 8.031c0.411 0.425 0.539 0.749-0.059 0.749z"></path>
</symbol>
<symbol id="icon-key" viewBox="0 0 20 20">
<path d="M17.691 4.725c-0.503-2.977-3.22-4.967-6.069-4.441s-5.256 2.816-4.753 5.795c0.107 0.641 0.408 1.644 0.763 2.365l-5.175 7.723c-0.191 0.285-0.299 0.799-0.242 1.141l0.333 1.971c0.058 0.342 0.372 0.572 0.7 0.514l1.516-0.281c0.328-0.059 0.744-0.348 0.924-0.639l2.047-3.311 0.018-0.022 1.386-0.256 2.39-3.879c0.785 0.139 1.912 0.092 2.578-0.031 2.848-0.526 4.087-3.67 3.584-6.649zM15.166 6.252c-0.784 1.17-1.584 0.346-2.703-0.475-1.119-0.818-2.135-1.322-1.352-2.492s2.326-1.455 3.447-0.635c1.12 0.819 1.391 2.432 0.608 3.602z"></path>
</symbol>
<symbol id="icon-location-pin" viewBox="0 0 20 20">
<path d="M10 2.009c-2.762 0-5 2.229-5 4.99 0 4.774 5 11 5 11s5-6.227 5-11c0-2.76-2.238-4.99-5-4.99zM10 9.76c-1.492 0-2.7-1.209-2.7-2.7s1.208-2.7 2.7-2.7c1.49 0 2.699 1.209 2.699 2.7s-1.209 2.7-2.699 2.7z"></path>
</symbol>
<symbol id="icon-magnifying-glass" viewBox="0 0 20 20">
<path d="M17.545 15.467l-3.779-3.779c0.57-0.935 0.898-2.035 0.898-3.21 0-3.417-2.961-6.377-6.378-6.377s-6.186 2.769-6.186 6.186c0 3.416 2.961 6.377 6.377 6.377 1.137 0 2.2-0.309 3.115-0.844l3.799 3.801c0.372 0.371 0.975 0.371 1.346 0l0.943-0.943c0.371-0.371 0.236-0.84-0.135-1.211zM4.004 8.287c0-2.366 1.917-4.283 4.282-4.283s4.474 2.107 4.474 4.474c0 2.365-1.918 4.283-4.283 4.283s-4.473-2.109-4.473-4.474z"></path>
</symbol>
<symbol id="icon-map" viewBox="0 0 20 20">
<path d="M19.447 3.718l-6-3c-0.281-0.141-0.613-0.141-0.895 0l-5.63 2.815-5.606-1.869c-0.306-0.102-0.64-0.051-0.901 0.138s-0.415 0.49-0.415 0.811v13.001c0 0.379 0.214 0.725 0.553 0.894l6 3c0.141 0.070 0.294 0.106 0.447 0.106s0.307-0.035 0.447-0.106l5.63-2.814 5.606 1.869c0.305 0.1 0.64 0.049 0.901-0.139s0.415-0.49 0.415-0.81v-13.002c0.001-0.379-0.213-0.725-0.552-0.894zM8 5.231l4-2v11.763l-4 2v-11.763zM2 4l4 1.333v11.661l-4-2v-10.994zM18 16.227l-4-1.334v-11.662l4 2v10.996z"></path>
</symbol>
<symbol id="icon-star" viewBox="0 0 20 20">
<path d="M10 1.3l2.388 6.722h6.412l-5.232 3.948 1.871 6.928-5.439-4.154-5.438 4.154 1.87-6.928-5.233-3.948h6.412l2.389-6.722z"></path>
</symbol>
<symbol id="icon-local_restaurant" viewBox="0 0 24 24">
<path d="M14.859 11.531l-1.453 1.453 6.891 6.891-1.406 1.406-6.891-6.891-6.891 6.891-1.406-1.406 9.75-9.75q-0.563-1.125-0.164-2.625t1.57-2.672q1.453-1.453 3.234-1.664t2.859 0.867 0.867 2.883-1.664 3.258q-1.172 1.172-2.672 1.547t-2.625-0.188zM8.109 13.359l-4.219-4.219q-1.172-1.172-1.172-2.813t1.172-2.813l7.031 6.984z"></path>
</symbol>
<symbol id="icon-chevron-right" viewBox="0 0 24 24">
<path d="M10.996 5.419c0.502 0.49 5.402 5.634 5.402 5.634 0.268 0.263 0.402 0.605 0.402 0.947s-0.134 0.684-0.402 0.944c0 0-4.901 5.147-5.402 5.634-0.502 0.49-1.404 0.523-1.938 0-0.535-0.521-0.577-1.249 0-1.889l4.496-4.69-4.496-4.69c-0.577-0.64-0.535-1.369 0-1.891 0.534-0.523 1.436-0.491 1.938 0z"></path>
</symbol>
<symbol id="icon-trash" viewBox="0 0 24 24">
<path d="M4.067 8.536l1.321 13.090c0.073 0.553 2.744 2.372 6.612 2.375 3.87-0.002 6.541-1.822 6.613-2.375l1.322-13.090c-2.021 1.13-5.041 1.664-7.936 1.664-2.892 0-5.914-0.534-7.933-1.664zM15.802 1.812l-1.031-1.141c-0.398-0.568-0.83-0.671-1.672-0.671h-2.197c-0.84 0-1.273 0.103-1.67 0.671l-1.031 1.141c-3.084 0.539-5.321 1.968-5.321 3.023v0.204c0 1.856 4.084 3.361 9.12 3.361 5.038 0 9.121-1.505 9.121-3.361v-0.204c0-1.055-2.236-2.484-5.32-3.023zM14.484 5.208l-1.284-1.608h-2.4l-1.282 1.608h-2.040c0 0 2.234-2.665 2.533-3.026 0.228-0.276 0.461-0.382 0.763-0.382h2.452c0.304 0 0.536 0.106 0.764 0.382 0.298 0.361 2.533 3.026 2.533 3.026h-2.040z"></path>
</symbol>
<symbol id="icon-triangle-down" viewBox="0 0 24 24">
<path d="M6 7.2h12l-6 10.8-6-10.8z"></path>
</symbol>
<symbol id="icon-triangle-up" viewBox="0 0 24 24">
<path d="M18 16.8h-12l6-10.8 6 10.8z"></path>
</symbol>
<symbol id="icon-aircraft-take-off" viewBox="0 0 24 24">
<path d="M23.844 7.744c0.143 0.308 0.152 1.548-5.861 4.37l-5.896 2.767c-2.052 0.964-5.029 2.231-6.342 2.581-0.919 0.245-1.796-0.379-1.796-0.379s-2.647-2.37-3.35-2.903c-0.702-0.533-0.642-0.804 0.258-1.092 0.56-0.179 3.756 0.592 5.118 0.936 1.607-0.96 3.074-1.783 3.769-2.158-1.675-1.24-4.81-3.554-5.809-4.26-0.959-0.678 0.012-0.922 0.012-0.922 0.442-0.119 1.394-0.274 1.874-0.173 3.265 0.683 8.716 2.485 9.133 2.623 0.998-0.523 2.554-1.31 3.506-1.758 2.49-1.169 5.192-0.044 5.383 0.366z"></path>
</symbol>
<symbol id="icon-chat" viewBox="0 0 24 24">
<path d="M6.96 14.64v-7.44h-4.56c-1.32 0-2.4 1.080-2.4 2.4v7.2c0 1.32 1.080 2.4 2.4 2.4h1.2v3.6l3.6-3.6h6c1.32 0 2.4-1.080 2.4-2.4v-2.184c-0.077 0.017-0.158 0.025-0.24 0.025l-8.4-0.001zM21.6 1.2h-10.8c-1.32 0-2.4 1.080-2.4 2.4v9.6h8.4l3.6 3.6v-3.6h1.2c1.32 0 2.4-1.079 2.4-2.4v-7.2c0-1.32-1.080-2.4-2.4-2.4z"></path>
</symbol>
<symbol id="icon-edit" viewBox="0 0 24 24">
<path d="M21.073 2.927c-1.73-1.732-3.030-1.472-3.030-1.472l-15.391 15.39-1.212 5.714 5.716-1.212 15.391-15.388c-0.001 0 0.259-1.3-1.474-3.032zM6.816 20.66l-1.949 0.42c-0.187-0.352-0.414-0.703-0.828-1.118-0.415-0.415-0.767-0.64-1.118-0.829l0.42-1.948 0.564-0.563c0 0 1.060 0.022 2.257 1.219 1.196 1.195 1.219 2.257 1.219 2.257l-0.565 0.562z"></path>
</symbol>
<symbol id="icon-home" viewBox="0 0 24 24">
<path d="M22.406 13.2h-2.006v7.2c0 0.534-0.233 1.2-1.2 1.2h-4.8v-7.2h-4.8v7.2h-4.8c-0.967 0-1.2-0.666-1.2-1.2v-7.2h-2.006c-0.718 0-0.564-0.389-0.072-0.898l9.629-9.638c0.234-0.242 0.541-0.362 0.85-0.374 0.308 0.012 0.616 0.131 0.85 0.374l9.628 9.637c0.493 0.51 0.647 0.899-0.071 0.899z"></path>
</symbol>
<symbol id="icon-key" viewBox="0 0 24 24">
<path d="M21.229 5.67c-0.604-3.572-3.864-5.96-7.283-5.329-3.42 0.63-6.307 3.379-5.704 6.954 0.128 0.769 0.49 1.973 0.916 2.838l-6.21 9.268c-0.229 0.342-0.359 0.959-0.29 1.369l0.4 2.365c0.070 0.41 0.446 0.686 0.84 0.617l1.819-0.337c0.394-0.071 0.893-0.418 1.109-0.767l2.456-3.973 0.022-0.026 1.663-0.307 2.868-4.655c0.942 0.167 2.294 0.11 3.094-0.037 3.418-0.631 4.904-4.404 4.301-7.979zM18.199 7.502c-0.941 1.404-1.901 0.415-3.244-0.57-1.343-0.982-2.562-1.586-1.622-2.99 0.941-1.404 2.791-1.746 4.136-0.762 1.344 0.983 1.669 2.918 0.73 4.322z"></path>
</symbol>
<symbol id="icon-location-pin" viewBox="0 0 24 24">
<path d="M12 2.411c-3.314 0-6 2.675-6 5.988 0 5.729 6 13.2 6 13.2s6-7.472 6-13.2c0-3.312-2.686-5.988-6-5.988zM12 11.712c-1.79 0-3.24-1.451-3.24-3.24s1.45-3.24 3.24-3.24c1.788 0 3.239 1.451 3.239 3.24s-1.451 3.24-3.239 3.24z"></path>
</symbol>
<symbol id="icon-magnifying-glass" viewBox="0 0 24 24">
<path d="M21.054 18.56l-4.535-4.535c0.684-1.122 1.078-2.442 1.078-3.852 0-4.1-3.553-7.652-7.654-7.652-4.1-0.001-7.423 3.323-7.423 7.423 0 4.099 3.553 7.652 7.652 7.652 1.364 0 2.64-0.371 3.738-1.013l4.559 4.561c0.446 0.445 1.17 0.445 1.615 0l1.132-1.132c0.445-0.445 0.283-1.008-0.162-1.453zM4.805 9.944c0-2.839 2.3-5.14 5.138-5.14 2.839 0 5.369 2.528 5.369 5.369 0 2.838-2.302 5.14-5.14 5.14-2.839-0.001-5.368-2.531-5.368-5.369z"></path>
</symbol>
<symbol id="icon-map" viewBox="0 0 24 24">
<path d="M23.336 4.462l-7.2-3.6c-0.337-0.169-0.736-0.169-1.074 0l-6.756 3.378-6.727-2.243c-0.367-0.122-0.768-0.061-1.081 0.166-0.313 0.226-0.498 0.588-0.498 0.973v15.601c0 0.455 0.257 0.87 0.664 1.073l7.2 3.6c0.169 0.084 0.353 0.127 0.536 0.127s0.368-0.042 0.536-0.127l6.756-3.377 6.727 2.243c0.366 0.12 0.768 0.059 1.081-0.167s0.498-0.588 0.498-0.972v-15.602c0.001-0.455-0.256-0.87-0.662-1.073zM9.6 6.277l4.8-2.4v14.116l-4.8 2.4v-14.116zM2.4 4.8l4.8 1.6v13.993l-4.8-2.4v-13.193zM21.6 19.472l-4.8-1.601v-13.994l4.8 2.4v13.195z"></path>
</symbol>
<symbol id="icon-star" viewBox="0 0 24 24">
<path d="M12 1.56l2.866 8.066h7.694l-6.278 4.738 2.245 8.314-6.527-4.985-6.526 4.985 2.244-8.314-6.28-4.738h7.694l2.867-8.066z"></path>
</symbol>
<symbol id="icon-bin" viewBox="0 0 32 32">
<path d="M4 10v20c0 1.1 0.9 2 2 2h18c1.1 0 2-0.9 2-2v-20h-22zM10 28h-2v-14h2v14zM14 28h-2v-14h2v14zM18 28h-2v-14h2v14zM22 28h-2v-14h2v14z"></path>
<path d="M26.5 4h-6.5v-2.5c0-0.825-0.675-1.5-1.5-1.5h-7c-0.825 0-1.5 0.675-1.5 1.5v2.5h-6.5c-0.825 0-1.5 0.675-1.5 1.5v2.5h26v-2.5c0-0.825-0.675-1.5-1.5-1.5zM18 4h-6v-1.975h6v1.975z"></path>
</symbol>
</defs>
</svg>
